# xmcd
#
# Track frame offsets:
#	150
#	11723
#	26420
#	43541
#	63099
#	84158
#	100203
#	116121
#	132807
#	144803
#	160080
#	176255
#	192163
#	202347
#	211427
#	221710
#	233794
#
# Disc length: 3328 seconds
#
# Revision: 0
# Processed by: cddbd v1.5.1PL2 Copyright (c) Steve Scherf et al.
# Submitted via: MusicManager 7.2.0.0 
#
DISCID=e40cfe11
DTITLE=Genesis - From Genesis to Revelation
DYEAR=1900
DGENRE=rock
TTITLE0=The Silent Sun
TTITLE1=That's Me
TTITLE2=Where the sour turns so sweet
TTITLE3=In the beginning
TTITLE4=Fireside song
TTITLE5=The serpent
TTITLE6=Am I very wrong ?
TTITLE7=In the wilderness
TTITLE8=The conqueror
TTITLE9=In hiding
TTITLE10=One Day
TTITLE11=Window
TTITLE12=in Limbo
TTITLE13=Silent Sun
TTITLE14=A place to call my own
TTITLE15=A winter's tale
TTITLE16=One eyed hound
EXTD=
EXTT0=
EXTT1=
EXTT2=
EXTT3=
EXTT4=
EXTT5=
EXTT6=
EXTT7=
EXTT8=
EXTT9=
EXTT10=
EXTT11=
EXTT12=
EXTT13=
EXTT14=
EXTT15=
EXTT16=
PLAYORDER=
